<mxfile host="app.diagrams.net" modified="2023-02-06T16:52:16.750Z" agent="5.0 (Windows)" etag="q06iM7NY_7vxafJh7DPy" version="20.8.16" type="github">
  <diagram name="Page-1" id="oKYqLAlFBlPUoExyLl6c">
    <mxGraphModel dx="1050" dy="530" grid="1" gridSize="10" guides="1" tooltips="1" connect="1" arrows="1" fold="1" page="1" pageScale="1" pageWidth="1169" pageHeight="827" math="0" shadow="0">
      <root>
        <mxCell id="0" />
        <mxCell id="1" parent="0" />
        <mxCell id="fYzc5iGK3RnNoOoryGZN-3" value="Visiteur" style="html=1;overflow=block;blockSpacing=1;shape=umlActor;labelPosition=center;verticalLabelPosition=bottom;verticalAlign=top;whiteSpace=nowrap;fontSize=16.7;fontColor=#333333;align=center;spacing=0;strokeColor=#5e5e5e;strokeOpacity=100;rounded=1;absoluteArcSize=1;arcSize=9;strokeWidth=2.3;lucidId=8mitzC-ZQj-q;" parent="1" vertex="1">
          <mxGeometry x="40" y="350" width="60" height="135" as="geometry" />
        </mxCell>
        <mxCell id="48hHsusyQehYmFjqrb_I-24" style="edgeStyle=orthogonalEdgeStyle;rounded=0;orthogonalLoop=1;jettySize=auto;html=1;endArrow=none;endFill=0;" parent="1" source="fYzc5iGK3RnNoOoryGZN-4" target="fYzc5iGK3RnNoOoryGZN-3" edge="1">
          <mxGeometry relative="1" as="geometry" />
        </mxCell>
        <mxCell id="fYzc5iGK3RnNoOoryGZN-4" value="Consulter la liste des evenements" style="html=1;overflow=block;blockSpacing=1;whiteSpace=wrap;ellipse;fontSize=13;spacing=3.8;strokeColor=#000000;strokeOpacity=100;rounded=1;absoluteArcSize=1;arcSize=9;strokeWidth=1;lucidId=soitjvf58P_N;" parent="1" vertex="1">
          <mxGeometry x="361.5" y="310" width="165" height="40" as="geometry" />
        </mxCell>
        <mxCell id="fYzc5iGK3RnNoOoryGZN-5" value="" style="html=1;jettySize=18;whiteSpace=wrap;fontSize=13;strokeColor=#080808;strokeWidth=1;rounded=1;arcSize=12;edgeStyle=orthogonalEdgeStyle;startArrow=none;endArrow=block;endFill=1;lucidId=mpitS5lhm7C1;" parent="1" edge="1">
          <mxGeometry width="100" height="100" relative="1" as="geometry">
            <Array as="points" />
            <mxPoint x="605.17" y="549" as="sourcePoint" />
            <mxPoint x="605.17" y="549" as="targetPoint" />
          </mxGeometry>
        </mxCell>
        <mxCell id="48hHsusyQehYmFjqrb_I-23" style="edgeStyle=orthogonalEdgeStyle;rounded=0;orthogonalLoop=1;jettySize=auto;html=1;exitX=0;exitY=0.5;exitDx=0;exitDy=0;endArrow=none;endFill=0;" parent="1" source="fYzc5iGK3RnNoOoryGZN-6" target="fYzc5iGK3RnNoOoryGZN-3" edge="1">
          <mxGeometry relative="1" as="geometry" />
        </mxCell>
        <mxCell id="fYzc5iGK3RnNoOoryGZN-6" value="Creer un compte" style="html=1;overflow=block;blockSpacing=1;whiteSpace=wrap;ellipse;fontSize=13;spacing=3.8;strokeColor=#080808;strokeOpacity=100;rounded=1;absoluteArcSize=1;arcSize=9;strokeWidth=1;lucidId=KpitLF8Kvkj4;" parent="1" vertex="1">
          <mxGeometry x="361.5" y="230" width="165" height="30" as="geometry" />
        </mxCell>
        <mxCell id="48hHsusyQehYmFjqrb_I-12" style="edgeStyle=orthogonalEdgeStyle;rounded=0;orthogonalLoop=1;jettySize=auto;html=1;entryX=0.476;entryY=1;entryDx=0;entryDy=0;entryPerimeter=0;endArrow=block;endFill=0;" parent="1" source="fYzc5iGK3RnNoOoryGZN-8" target="fYzc5iGK3RnNoOoryGZN-4" edge="1">
          <mxGeometry relative="1" as="geometry" />
        </mxCell>
        <mxCell id="fYzc5iGK3RnNoOoryGZN-8" value="&lt;div&gt;Rechercher un evenement &lt;br&gt;&lt;/div&gt;" style="html=1;overflow=block;blockSpacing=1;whiteSpace=wrap;ellipse;fontSize=13;spacing=3.8;strokeColor=#050505;strokeOpacity=100;rounded=1;absoluteArcSize=1;arcSize=9;strokeWidth=1;lucidId=.BitsejxpJ_f;" parent="1" vertex="1">
          <mxGeometry x="241" y="384" width="180" height="30" as="geometry" />
        </mxCell>
        <mxCell id="fYzc5iGK3RnNoOoryGZN-12" value="&lt;font style=&quot;font-size: 14px;&quot;&gt;Consulter profil de l&#39;organisateur&lt;/font&gt;" style="ellipse;whiteSpace=wrap;html=1;strokeColor=#050505;strokeWidth=1;" parent="1" vertex="1">
          <mxGeometry x="591" y="430" width="216" height="30" as="geometry" />
        </mxCell>
        <mxCell id="fYzc5iGK3RnNoOoryGZN-14" value="Partager un evenement" style="ellipse;whiteSpace=wrap;html=1;strokeColor=#050505;strokeWidth=1;" parent="1" vertex="1">
          <mxGeometry x="280" y="430" width="185" height="30" as="geometry" />
        </mxCell>
        <mxCell id="fYzc5iGK3RnNoOoryGZN-16" value="Ajouter au favoris" style="html=1;overflow=block;blockSpacing=1;whiteSpace=wrap;ellipse;fontSize=13;spacing=3.8;strokeColor=#050505;strokeOpacity=100;rounded=1;absoluteArcSize=1;arcSize=9;strokeWidth=1;lucidId=.BitsejxpJ_f;" parent="1" vertex="1">
          <mxGeometry x="452.5" y="460" width="150" height="30" as="geometry" />
        </mxCell>
        <mxCell id="48hHsusyQehYmFjqrb_I-26" style="edgeStyle=orthogonalEdgeStyle;rounded=0;orthogonalLoop=1;jettySize=auto;html=1;endArrow=none;endFill=0;" parent="1" source="fYzc5iGK3RnNoOoryGZN-23" target="fYzc5iGK3RnNoOoryGZN-3" edge="1">
          <mxGeometry relative="1" as="geometry">
            <mxPoint x="110" y="430" as="targetPoint" />
            <Array as="points">
              <mxPoint x="424" y="480" />
              <mxPoint x="120" y="480" />
              <mxPoint x="120" y="430" />
            </Array>
          </mxGeometry>
        </mxCell>
        <mxCell id="fYzc5iGK3RnNoOoryGZN-23" value="GÃ©rer Listes de Favoris " style="html=1;overflow=block;blockSpacing=1;whiteSpace=wrap;ellipse;fontSize=13;spacing=3.8;strokeColor=#080808;strokeOpacity=100;rounded=1;absoluteArcSize=1;arcSize=9;strokeWidth=1;lucidId=atit3Y5sFF7p;" parent="1" vertex="1">
          <mxGeometry x="359.17" y="520" width="130" height="40" as="geometry" />
        </mxCell>
        <mxCell id="fYzc5iGK3RnNoOoryGZN-30" style="edgeStyle=orthogonalEdgeStyle;rounded=0;orthogonalLoop=1;jettySize=auto;html=1;exitX=0.5;exitY=0;exitDx=0;exitDy=0;strokeColor=#080808;strokeWidth=1;fontSize=14;endArrow=none;endFill=0;" parent="1" source="fYzc5iGK3RnNoOoryGZN-25" edge="1">
          <mxGeometry relative="1" as="geometry">
            <mxPoint x="424.17" y="581.56" as="targetPoint" />
            <Array as="points">
              <mxPoint x="507.17" y="581.56" />
            </Array>
          </mxGeometry>
        </mxCell>
        <mxCell id="fYzc5iGK3RnNoOoryGZN-25" value="Supprimer de la liste de favoris" style="html=1;overflow=block;blockSpacing=1;whiteSpace=wrap;ellipse;fontSize=13;spacing=3.8;strokeColor=#080808;strokeOpacity=100;rounded=1;absoluteArcSize=1;arcSize=9;strokeWidth=1;lucidId=atit3Y5sFF7p;" parent="1" vertex="1">
          <mxGeometry x="429.17" y="606.56" width="165" height="50" as="geometry" />
        </mxCell>
        <mxCell id="fYzc5iGK3RnNoOoryGZN-26" style="edgeStyle=none;rounded=0;orthogonalLoop=1;jettySize=auto;html=1;exitX=0.5;exitY=0;exitDx=0;exitDy=0;fontSize=14;endArrow=block;endFill=0;strokeColor=#080808;strokeWidth=1;entryX=0.5;entryY=1;entryDx=0;entryDy=0;" parent="1" source="fYzc5iGK3RnNoOoryGZN-27" target="fYzc5iGK3RnNoOoryGZN-23" edge="1">
          <mxGeometry relative="1" as="geometry">
            <mxPoint x="419.17" y="560" as="targetPoint" />
            <Array as="points">
              <mxPoint x="337.17" y="581.56" />
              <mxPoint x="424.17" y="581.56" />
            </Array>
          </mxGeometry>
        </mxCell>
        <mxCell id="fYzc5iGK3RnNoOoryGZN-27" value="Consulter les informations de l&#39;evenemts" style="html=1;overflow=block;blockSpacing=1;whiteSpace=wrap;ellipse;fontSize=13;spacing=3.8;strokeColor=#080808;strokeOpacity=100;rounded=1;absoluteArcSize=1;arcSize=9;strokeWidth=1;lucidId=atit3Y5sFF7p;" parent="1" vertex="1">
          <mxGeometry x="254.17000000000002" y="606.56" width="165" height="50" as="geometry" />
        </mxCell>
        <mxCell id="48hHsusyQehYmFjqrb_I-13" style="edgeStyle=orthogonalEdgeStyle;rounded=0;orthogonalLoop=1;jettySize=auto;html=1;endArrow=block;endFill=0;" parent="1" source="48hHsusyQehYmFjqrb_I-2" edge="1">
          <mxGeometry relative="1" as="geometry">
            <mxPoint x="440" y="350" as="targetPoint" />
            <Array as="points">
              <mxPoint x="540" y="364" />
              <mxPoint x="440" y="364" />
            </Array>
          </mxGeometry>
        </mxCell>
        <mxCell id="48hHsusyQehYmFjqrb_I-2" value="Consulter un evenement" style="html=1;overflow=block;blockSpacing=1;whiteSpace=wrap;ellipse;fontSize=13;spacing=3.8;strokeColor=#000000;strokeOpacity=100;rounded=1;absoluteArcSize=1;arcSize=9;strokeWidth=1;lucidId=soitjvf58P_N;" parent="1" vertex="1">
          <mxGeometry x="452.5" y="384" width="165" height="30" as="geometry" />
        </mxCell>
        <mxCell id="48hHsusyQehYmFjqrb_I-15" value="&amp;lt;&amp;lt;include&amp;gt;&amp;gt;" style="html=1;verticalAlign=bottom;labelBackgroundColor=none;endArrow=open;endFill=0;dashed=1;rounded=0;exitX=0.5;exitY=0;exitDx=0;exitDy=0;entryX=0.5;entryY=1;entryDx=0;entryDy=0;" parent="1" source="fYzc5iGK3RnNoOoryGZN-23" target="fYzc5iGK3RnNoOoryGZN-16" edge="1">
          <mxGeometry width="160" relative="1" as="geometry">
            <mxPoint x="430" y="470" as="sourcePoint" />
            <mxPoint x="590" y="470" as="targetPoint" />
            <Array as="points">
              <mxPoint x="510" y="510" />
            </Array>
          </mxGeometry>
        </mxCell>
        <mxCell id="48hHsusyQehYmFjqrb_I-16" value="&amp;lt;&amp;lt;extend&amp;gt;&amp;gt;" style="html=1;verticalAlign=bottom;labelBackgroundColor=none;endArrow=open;endFill=0;dashed=1;rounded=0;entryX=0.202;entryY=0.933;entryDx=0;entryDy=0;entryPerimeter=0;exitX=0.757;exitY=0.003;exitDx=0;exitDy=0;exitPerimeter=0;" parent="1" source="fYzc5iGK3RnNoOoryGZN-14" target="48hHsusyQehYmFjqrb_I-2" edge="1">
          <mxGeometry x="-1" width="160" relative="1" as="geometry">
            <mxPoint x="430" y="500" as="sourcePoint" />
            <mxPoint x="590" y="500" as="targetPoint" />
            <Array as="points">
              <mxPoint x="460" y="430" />
            </Array>
            <mxPoint as="offset" />
          </mxGeometry>
        </mxCell>
        <mxCell id="48hHsusyQehYmFjqrb_I-18" value="&amp;lt;&amp;lt;extend&amp;gt;&amp;gt;" style="html=1;verticalAlign=bottom;labelBackgroundColor=none;endArrow=open;endFill=0;dashed=1;rounded=0;entryX=0.5;entryY=1;entryDx=0;entryDy=0;" parent="1" source="fYzc5iGK3RnNoOoryGZN-16" target="48hHsusyQehYmFjqrb_I-2" edge="1">
          <mxGeometry x="-0.6763" y="20" width="160" relative="1" as="geometry">
            <mxPoint x="430" y="500" as="sourcePoint" />
            <mxPoint x="590" y="500" as="targetPoint" />
            <mxPoint as="offset" />
          </mxGeometry>
        </mxCell>
        <mxCell id="48hHsusyQehYmFjqrb_I-19" value="&amp;lt;&amp;lt;extend&amp;gt;&amp;gt;" style="html=1;verticalAlign=bottom;labelBackgroundColor=none;endArrow=open;endFill=0;dashed=1;rounded=0;entryX=1;entryY=0.5;entryDx=0;entryDy=0;exitX=0.346;exitY=-0.092;exitDx=0;exitDy=0;exitPerimeter=0;" parent="1" source="fYzc5iGK3RnNoOoryGZN-12" target="48hHsusyQehYmFjqrb_I-2" edge="1">
          <mxGeometry x="-1" y="-16" width="160" relative="1" as="geometry">
            <mxPoint x="430" y="500" as="sourcePoint" />
            <mxPoint x="590" y="500" as="targetPoint" />
            <mxPoint x="6" y="7" as="offset" />
          </mxGeometry>
        </mxCell>
        <mxCell id="MNkqo8t-yjYE44w6BTjp-2" style="edgeStyle=none;rounded=0;orthogonalLoop=1;jettySize=auto;html=1;exitX=0;exitY=0.5;exitDx=0;exitDy=0;endArrow=none;endFill=0;" parent="1" source="MNkqo8t-yjYE44w6BTjp-1" edge="1">
          <mxGeometry relative="1" as="geometry">
            <mxPoint x="110" y="510" as="targetPoint" />
            <Array as="points">
              <mxPoint x="110" y="685" />
            </Array>
          </mxGeometry>
        </mxCell>
        <mxCell id="MNkqo8t-yjYE44w6BTjp-1" value="Consulter ludification" style="html=1;overflow=block;blockSpacing=1;whiteSpace=wrap;ellipse;fontSize=13;spacing=3.8;strokeColor=#080808;strokeOpacity=100;rounded=1;absoluteArcSize=1;arcSize=9;strokeWidth=1;lucidId=KpitLF8Kvkj4;" parent="1" vertex="1">
          <mxGeometry x="350" y="670" width="165" height="30" as="geometry" />
        </mxCell>
      </root>
    </mxGraphModel>
  </diagram>
</mxfile>
